<svg width="40" height="40" viewBox="0 0 40 40" fill="none" xmlns="http://www.w3.org/2000/svg">
<circle cx="20" cy="20" r="20" fill="inherit"/>
<path d="M24.1665 11.6665C25.2707 11.6698 26.3286 12.1099 27.1094 12.8906C27.8901 13.6714 28.3302 14.7293 28.3335 15.8335V24.1665C28.3302 25.2707 27.8901 26.3286 27.1094 27.1094C26.3286 27.8901 25.2707 28.3302 24.1665 28.3335H15.8335C14.7293 28.3302 13.6714 27.8901 12.8906 27.1094C12.1099 26.3286 11.6698 25.2707 11.6665 24.1665V15.8335C11.6698 14.7293 12.1099 13.6714 12.8906 12.8906C13.6714 12.1099 14.7293 11.6698 15.8335 11.6665H24.1665ZM24.1665 10H15.8335C12.625 10 10 12.625 10 15.8335V24.1665C10 27.375 12.625 30 15.8335 30H24.1665C27.375 30 30 27.375 30 24.1665V15.8335C30 12.625 27.375 10 24.1665 10Z" fill="#F8F8F8"/>
<path d="M25.4165 15.8335C25.1693 15.8335 24.9276 15.7602 24.7221 15.6228C24.5165 15.4855 24.3563 15.2902 24.2617 15.0618C24.1671 14.8334 24.1423 14.5821 24.1905 14.3396C24.2388 14.0971 24.3578 13.8744 24.5326 13.6996C24.7075 13.5248 24.9302 13.4057 25.1727 13.3575C25.4151 13.3093 25.6665 13.334 25.8949 13.4286C26.1233 13.5232 26.3185 13.6835 26.4559 13.889C26.5932 14.0946 26.6665 14.3363 26.6665 14.5835C26.6669 14.7477 26.6348 14.9104 26.5721 15.0623C26.5094 15.2141 26.4173 15.352 26.3012 15.4682C26.185 15.5843 26.0471 15.6764 25.8953 15.739C25.7435 15.8017 25.5808 15.8338 25.4165 15.8335ZM20 16.6665C20.6593 16.6665 21.3038 16.862 21.852 17.2283C22.4002 17.5946 22.8274 18.1152 23.0797 18.7243C23.332 19.3334 23.3981 20.0037 23.2694 20.6503C23.1408 21.297 22.8233 21.8909 22.3571 22.3571C21.8909 22.8233 21.297 23.1408 20.6503 23.2694C20.0037 23.3981 19.3334 23.332 18.7243 23.0797C18.1152 22.8274 17.5946 22.4002 17.2283 21.852C16.862 21.3038 16.6665 20.6593 16.6665 20C16.6675 19.1162 17.019 18.2689 17.6439 17.6439C18.2689 17.019 19.1162 16.6675 20 16.6665ZM20 15C19.0111 15 18.0444 15.2932 17.2222 15.8427C16.3999 16.3921 15.759 17.173 15.3806 18.0866C15.0022 19.0002 14.9031 20.0055 15.0961 20.9755C15.289 21.9454 15.7652 22.8363 16.4645 23.5355C17.1637 24.2348 18.0546 24.711 19.0246 24.9039C19.9945 25.0969 20.9998 24.9978 21.9134 24.6194C22.827 24.241 23.6079 23.6001 24.1574 22.7779C24.7068 21.9556 25 20.9889 25 20C25 18.6739 24.4732 17.4021 23.5355 16.4645C22.5979 15.5268 21.3261 15 20 15Z" fill="#F8F8F8"/>
</svg>
