<svg width="40" height="40" viewBox="0 0 40 40" fill="none" xmlns="http://www.w3.org/2000/svg">
<circle cx="20" cy="20" r="20" fill="inherit"/>
<path d="M30 13.1176C29.2639 13.4882 28.4704 13.7318 27.6482 13.8482C28.4895 13.2871 29.1396 12.3976 29.4455 11.3282C28.652 11.8576 27.7725 12.2282 26.8451 12.44C26.0899 11.5294 25.0287 11 23.8241 11C21.5774 11 19.7419 13.0329 19.7419 15.5424C19.7419 15.9024 19.7801 16.2518 19.847 16.58C16.4436 16.3894 13.413 14.5788 11.3958 11.8365C11.0421 12.5035 10.8413 13.2871 10.8413 14.1129C10.8413 15.6906 11.5583 17.0882 12.6673 17.8824C11.9885 17.8824 11.3576 17.6706 10.8031 17.3529V17.3847C10.8031 19.5871 12.218 21.4294 14.0918 21.8424C13.4902 22.0247 12.8586 22.0501 12.2467 21.9165C12.5063 22.8191 13.0149 23.6089 13.7008 24.1749C14.3867 24.7408 15.2155 25.0545 16.0707 25.0718C14.6211 26.3428 12.8241 27.0299 10.9751 27.02C10.6501 27.02 10.325 26.9988 10 26.9565C11.8164 28.2482 13.9771 29 16.2906 29C23.8241 29 27.9637 22.0753 27.9637 16.0718C27.9637 15.8706 27.9637 15.68 27.9541 15.4788C28.7572 14.8435 29.4455 14.0388 30 13.1176Z" fill="#F8F8F8"/>
</svg>
